<svg xmlns="http://www.w3.org/2000/svg" width="920" height="420" viewBox="0 0 920 420">
<rect width="100%" height="100%" fill="#101418"/>
<text x="80" y="30" fill="#f4f7fb" font-family="Arial" font-size="20">vulkan_cpu_measurements Pruned Light-Sample Ratio</text>
<line x1="80" y1="340" x2="896" y2="340" stroke="#6b7280"/>
<line x1="80" y1="48" x2="80" y2="340" stroke="#6b7280"/>
<rect x="86.0" y="48.0" width="103.4" height="292.0" fill="#4cc9f0"/>
<text transform="translate(137.7,366) rotate(-35)" fill="#d1d5db" font-family="Arial" font-size="11" text-anchor="end">adaptive-bounded</text>
<text x="86.0" y="44.0" fill="#e5e7eb" font-family="Arial" font-size="11">0.00734</text>
<rect x="201.4" y="340.0" width="103.4" height="0.0" fill="#4cc9f0"/>
<text transform="translate(253.1,366) rotate(-35)" fill="#d1d5db" font-family="Arial" font-size="11" text-anchor="end">adaptive-exact</text>
<text x="201.4" y="334.0" fill="#e5e7eb" font-family="Arial" font-size="11">0</text>
<rect x="316.9" y="340.0" width="103.4" height="0.0" fill="#4cc9f0"/>
<text transform="translate(368.6,366) rotate(-35)" fill="#d1d5db" font-family="Arial" font-size="11" text-anchor="end">baseline</text>
<text x="316.9" y="334.0" fill="#e5e7eb" font-family="Arial" font-size="11">0</text>
<rect x="432.3" y="141.2" width="103.4" height="198.8" fill="#4cc9f0"/>
<text transform="translate(484.0,366) rotate(-35)" fill="#d1d5db" font-family="Arial" font-size="11" text-anchor="end">beacon</text>
<text x="432.3" y="135.2" fill="#e5e7eb" font-family="Arial" font-size="11">0.005</text>
<rect x="547.7" y="340.0" width="103.4" height="0.0" fill="#4cc9f0"/>
<text transform="translate(599.4,366) rotate(-35)" fill="#d1d5db" font-family="Arial" font-size="11" text-anchor="end">gpu-clustered</text>
<text x="547.7" y="334.0" fill="#e5e7eb" font-family="Arial" font-size="11">0</text>
<rect x="663.1" y="340.0" width="103.4" height="0.0" fill="#4cc9f0"/>
<text transform="translate(714.9,366) rotate(-35)" fill="#d1d5db" font-family="Arial" font-size="11" text-anchor="end">instanced</text>
<text x="663.1" y="334.0" fill="#e5e7eb" font-family="Arial" font-size="11">0</text>
<rect x="778.6" y="340.0" width="103.4" height="0.0" fill="#4cc9f0"/>
<text transform="translate(830.3,366) rotate(-35)" fill="#d1d5db" font-family="Arial" font-size="11" text-anchor="end">ssbo</text>
<text x="778.6" y="334.0" fill="#e5e7eb" font-family="Arial" font-size="11">0</text>
</svg>
